<?xml version="1.0" encoding="UTF-8"?>
<svg width="100" height="120" version="1.1" viewBox="0 0 210 297" xmlns="http://www.w3.org/2000/svg">
<path d="m113.68 208.28 0.25594-29.97c0.12196-7.4067 6.0564-16.228 15.267-16.393 7.5321-0.70405 15.002 6.7203 15.43 15.478l0.20391 30.788z" fill="none" stroke="#000" stroke-width=".54027px"/>
<path d="m167.13 208.18 0.25602-29.97c0.12228-7.4067 6.056-16.228 15.267-16.394 7.5322-0.70404 16.028 7.5659 15.462 16.005l0.17177 30.261z" fill="none" stroke="#000" stroke-width=".54027px"/>
<path d="m113.11 208.19c0-0.0569 0.29208-0.0759 0.69977-0.04 0.53966 0.04 0.74697 9e-3 0.90697-0.10726 0.19543-0.1576 0.17778-0.16613-0.31709-0.16951-0.79653-2e-3 -0.92432-0.1538-0.93904-1.0859-3e-3 -0.42903-0.0599-0.96025-0.12309-1.1808-0.0666-0.25456-0.0714-0.52335-0.0114-0.73737 0.0664-0.24722 0.0494-0.42309-0.0628-0.66294-0.14215-0.29132-0.14746-1.6666-0.0484-12.88 0.0561-6.9046 0.13496-12.961 0.16823-13.458 0.19255-2.8852 1.2103-5.7636 2.9901-8.4568 0.86298-1.3058 2.9157-3.4613 3.2953-3.4601 0.29361 9.2e-4 0.52218-0.2213 0.30414-0.29574-0.21465-0.0731 0.21295-0.33394 0.55717-0.33944 0.23306-2e-3 0.27294-0.0265 0.1584-0.10082-0.0798-0.0526-0.13085-0.11282-0.10138-0.13954 0.26882-0.22143 0.82323-0.55878 1.5764-0.95912 0.83272-0.44291 0.95096-0.47711 1.4746-0.42597 0.31304 0.0254 0.74563 7e-3 0.96066-0.0297 0.36939-0.0816 0.35052-0.09-0.33475-0.14605l-0.72575-0.0535 0.47819-0.17546c0.40524-0.14867 0.61457-0.15898 1.3703-0.0607 0.68036 0.0817 1.1577 0.0762 2.0098-0.0303 1.0509-0.13905 1.0899-0.15091 0.65121-0.22541-0.25659-0.0393-1.0029-0.049-1.6586-9e-3 -0.65547 0.0293-1.1666 0.0302-1.1354 4.5e-4 0.0302-0.0302 0.4978-0.13667 1.0366-0.22509 1.0463-0.17382 2.0624-0.20604 3.0838-0.0923 0.61429 0.0642 0.6252 0.0708 0.41319 0.24908-0.21542 0.17878-0.2115 0.18373 0.259 0.30461 0.26266 0.0673 0.69195 0.12269 0.95392 0.12269 0.28063 0 0.6532 0.0898 0.9066 0.22534 0.32974 0.17322 0.5434 0.21126 0.91721 0.1658 0.40034-0.046 0.54363-8e-3 0.80536 0.18208 0.17523 0.13404 0.62359 0.33083 0.99657 0.44075 0.37326 0.10685 0.67802 0.23332 0.67802 0.27538 0 0.0376 0.15159 0.10778 0.33692 0.15055 0.40169 0.0837 0.8031 0.43806 0.8031 0.70226 0 0.17546 0.0295 0.17787 0.41223 0.0363 0.41968-0.15341 0.56832-0.0886 0.46335 0.19015-0.0373 0.10256 0.0416 0.1935 0.25868 0.2699 0.17467 0.0589 0.31743 0.18802 0.31743 0.2757 0 0.0875 0.13422 0.23342 0.29712 0.3201 0.32959 0.1756 0.75091 0.52083 1.0794 0.88497 0.11939 0.13272 0.28262 0.23949 0.36398 0.23949 0.0781 0 0.3412 0.2093 0.57732 0.46534 0.79303 0.85878 0.89981 1.0253 0.83283 1.2992-0.0584 0.25035 6e-3 0.3078 0.33749 0.26771 0.0632-4e-3 0.17034 0.11502 0.23424 0.27981 0.0606 0.16343 0.22851 0.45236 0.36637 0.6448 0.18974 0.26537 0.237 0.43668 0.19462 0.70505-0.0307 0.20611-4e-3 0.38469 0.0559 0.42696 0.0656 0.0378 0.11517-2e-3 0.11517-0.11097 0-0.3161 0.17376-0.0288 0.49748 0.81279 0.67762 1.7678 0.64542 1.0609 0.69767 15.359 0.0231 7.1468 0.0701 13.358 0.10668 13.803 0.0713 1.0427 2e-3 1.3544-0.2974 1.2957-0.12528-0.0192-0.34243 2e-3 -0.48521 0.0598-0.1516 0.0598-0.19013 0.1059-0.0905 0.11098 0.0875 2e-3 0.24963 0.0996 0.35287 0.21969 0.24424 0.27731 0.35973 0.26898 0.37453-0.0236 3e-3 -0.13483 0.0473-0.0501 0.0937 0.1863 0.0447 0.2338 0.0847 1.3412 0.0884 2.4609 4e-3 2.3926 0.19766 2.1413-1.7042 2.2414-1.0947 0.0551-1.2287 0.043-1.1161-0.0905 0.10609-0.13302 0.0559-0.20554-0.29466-0.44231-0.23196-0.15714-0.53127-0.2837-0.66474-0.2837-0.52509 0-0.57685-0.19395-0.56418-2.1126 6e-3 -1.7071-0.0312-2.1428-0.21535-2.1428-0.15977 0-0.19329 0.36969-0.19241 2.1275 9.8e-4 2.1033-0.0588 2.4054-0.48706 2.3658-0.46731-0.0396-1.3889 0.27872-1.3205 0.46177 0.0396 0.11107-0.0285 0.15071-0.29135 0.14548-0.32671-3e-3 -0.33296-6e-3 -0.0954-0.10572 0.22336-0.0888 0.23248-0.1152 0.0902-0.28573-0.0808-0.0974-0.18528-0.2737-0.22286-0.38272-0.0569-0.17099-0.13709-0.18867-0.55623-0.12063-0.26802 0.0375-0.58092 0.14347-0.69566 0.22479-0.11415 0.0806-0.38143 0.15074-0.593 0.15074-0.21194 0-0.51649 0.049-0.67691 0.11132l-0.29185 0.11176 0.24459 0.20532c0.24183 0.20317 0.11796 0.20529-10.34 0.20529-6.5516 0-10.585-0.0354-10.585-0.0981zm20.472-0.15258c0.33028-0.24841-0.57515-0.39699-1.9353-0.31753-1.526 0.0862-1.607 0.084-2.1617-0.0304-0.34102-0.0745-0.65352-0.0633-1.1397 0.0363-0.38887 0.0813-0.82277 0.11011-1.0332 0.0657-0.33828-0.0681-1.3919-0.10916-4.043-0.15454-0.59832-5e-3 -1.964 4e-3 -3.034 0.0354-2.2492 0.0615-2.2526 0.0606-1.9743-0.80404 0.14446-0.44933 0.14465-0.53429 9.7e-4 -0.84587-0.12405-0.26776-0.15487-0.69441-0.14138-1.8887 0.0114-1.4757 0.025-1.5412 0.22453-1.5148 0.41289 0.0519 0.92671 0.0547 7.0577 0.0345 3.425-5e-3 6.3078 6e-3 6.4058 0.0471 0.0944 0.0353 0.46792 3e-3 0.82151-0.0718 0.35358-0.0779 0.6789-0.13429 0.72365-0.113 0.25493 0.0761 4.7136 0.0877 4.9694 8e-3 0.25527-0.0734 0.34941-0.043 0.55913 0.16877 0.25125 0.25815 0.25306 0.25827 0.45731 0.0456 0.181-0.18716 0.35385-0.21103 1.4751-0.21775 1.3956-4e-3 1.7526-0.0769 1.5018-0.29065-0.0919-0.0793-0.57417-0.13703-1.2657-0.1495-1.0919-0.0132-1.117-0.0209-1.2168-0.29178-0.0527-0.14992-0.2255-0.54641-0.37709-0.88142-0.26797-0.59409-0.4306-0.76883-0.4306-0.46275 0 0.22781-0.41061 1.1634-0.55066 1.255-0.0654 0.0413-0.44331 0.08-0.83476 0.0804-0.40439 1e-3 -0.92818 0.0796-1.2117 0.18481-0.47737 0.17412-0.50905 0.17393-0.70914-6e-3 -0.17183-0.16069-0.26393-0.17534-0.5184-0.0812-0.24606 0.0842-0.41928 0.0639-0.8461-0.0954-0.45523-0.17827-0.59395-0.19137-0.91323-0.0819-0.20714 0.0668-0.43459 0.17205-0.50522 0.2295-0.17885 0.14618-1.0658 0.13163-1.5251-0.019-0.2159-0.0718-0.54091-0.0954-0.74928-0.0553-0.20245 0.035-1.1209 0.0666-2.0407 0.0605-0.91968-2e-3 -2.0458 0.0335-2.5016 0.0874-0.57178 0.0651-0.9902 0.0581-1.3476-0.0179-0.60895-0.14381-2.7946-0.1174-4.5729 0.0422-1.41 0.13209-1.7192 0.0562-2.006-0.46544-0.14951-0.27387-0.14529-0.30066 0.0703-0.4581 0.22986-0.16522 0.30158-0.51888 0.15346-0.75576-0.0493-0.081-0.18755-0.0226-0.42838 0.18006-0.31293 0.26884-0.35896 0.3769-0.41458 0.97299l-0.0595 0.67081-1.5028 0.0701c-0.82678 0.0363-1.6328 0.0956-1.7913 0.13137-0.2242 0.0412-0.35975-6e-3 -0.61131-0.25842-0.17793-0.17506-0.33989-0.31708-0.35998-0.31708-0.0155 0-0.0343 0.16515-0.0343 0.36629v0.36591l0.49222-4e-3c0.27067-2e-3 0.86554 0.0474 1.3219 0.12253 0.49994 0.0793 1.143 0.1006 1.6192 0.0599 0.92841-0.081 0.95903-0.0496 0.81783 0.8393-0.0487 0.32259-0.064 0.91431-0.0318 1.3148 0.0727 0.92061-0.0327 1.1482-0.61548 1.2762-0.43913 0.0933-0.40811 0.15501 0.15182 0.27997 0.21407 0.0445 0.30934 0.16032 0.39874 0.46543 0.0624 0.22155 0.10064 0.5207 0.0774 0.66422-0.0369 0.28288 0.0317 0.26763-1.4351 0.30454-0.52937 6e-3 -0.63328 0.0375-0.48475 0.1311 0.10452 0.0599 0.29094 0.0828 0.41554 0.0519 0.12525-0.0282 0.29523-7e-3 0.37898 0.0352 0.085 0.0542 3.7204 0.095 8.6125 0.0963 6.8538 1e-3 8.4951-0.0186 8.647-0.13995zm-17.725-1.77c0.0346-0.0581-0.0479-0.10326-0.20118-0.10326-0.14576 0-0.26551 0.0443-0.26551 0.10326 0 0.0553 0.0888 0.10412 0.20147 0.10412 0.11159 0 0.23004-0.0451 0.26522-0.10412zm26.043-3.2554c-0.0329-0.0312-0.12502-0.0352-0.19869-4e-3 -0.079 0.0297-0.0558 0.0571 0.0593 0.0608 0.11031 2e-3 0.17013-0.0134 0.1364-0.0527zm-23.67-3.5094c0.24045-0.4421 0.25969-0.56176 0.20196-1.2644-0.0557-0.70072-0.042-0.78289 0.13161-0.83867 0.14811-0.0431 10.731-0.17013 19.228-0.22398 0.82347-3e-3 0.94 0.11806 0.75795 0.82489-0.23471 0.90547-0.19733 1.1558 0.21674 1.4455 0.30971 0.21644 0.38579 0.23205 0.53073 0.10695 0.14835-0.12902 0.16069-0.34795 0.0954-1.8484-0.0349-0.93779-0.0748-2.0402-0.0876-2.4497-0.0178-0.67939-0.0395-0.74769-0.25215-0.77815-0.36112-0.0509-0.42993 0.40921-0.18273 1.2254 0.0944 0.32279 0.0277 0.33151-3.0085 0.40088-1.4256 0.0277-3.6879 0.11437-5.0278 0.19037-2.7323 0.14869-4.1009 0.15587-5.0513 0.0247-0.45467-0.058-0.68982-0.0457-0.79324 0.0357-0.0924 0.0805-0.49895 0.11295-1.1683 0.0939-0.56147-8e-3 -1.9148 7e-3 -3.008 0.0632l-1.9878 0.0909-0.21603-0.36241c-0.17591-0.29415-0.20595-0.47202-0.15943-0.94765 0.07-0.75198-0.038-0.95508-0.40073-0.71307-0.21574 0.14593-0.27129 0.2899-0.33103 0.86099-0.0375 0.3776-0.0392 0.7368-2e-3 0.79886 0.0354 0.0591 0.0155 0.20634-0.0379 0.31957-0.16835 0.32339-0.2566 3.0727-0.10401 3.2609 0.21111 0.26119 0.38177 0.17491 0.6585-0.33419zm0.27264-5.5806c0.0668-0.13369 0.0895-0.5626 0.0581-1.1142-0.029-0.51929-5e-3 -0.92316 0.0443-0.95944 0.051-0.0305 1.2534-0.056 2.6642-0.0523 1.4105 2e-3 4.7107-0.0431 7.333-0.11085 2.6227-0.0656 5.6079-0.13333 6.6344-0.14844 1.0262-7e-3 2.1462-0.0561 2.4882-0.0956 0.88771-0.0993 0.91878-0.0598 0.89392 1.1622-6e-3 0.56659 4e-3 1.1218 0.0394 1.2333 0.0673 0.2291 0.45644 0.27386 0.64984 0.0741 0.15716-0.16155 0.17294-2.9853 0.0132-3.2803-0.0653-0.1304-0.0697-0.4151-8e-3 -0.79229 0.0658-0.44708 0.0533-0.63454-0.0473-0.77477-0.13269-0.17527-0.14871-0.17397-0.29547 0.0151-0.18194 0.24126-0.19836 0.56858-0.0464 0.9717 0.0563 0.15899 0.0842 0.3071 0.0612 0.33106-0.0891 0.0905-2.6163 0.14125-10.381 0.19156-4.4468 0.0251-8.3421 0.0875-8.6555 0.13652-0.5926 0.0845-0.96468 0.0447-1.2649-0.13652-0.14913-0.0896-0.16326-0.20081-0.0903-0.72702 0.0638-0.50114 0.0469-0.66011-0.0817-0.83199-0.16691-0.21186-0.16785-0.21184-0.36582 6e-3 -0.14235 0.16294-0.2055 0.41151-0.224 0.88619-0.0491 1.3394-0.1381 2.2077-0.2371 2.3982-0.12382 0.23539-0.11958 1.2764 3e-3 1.5269 0.0467 0.0954 0.19374 0.20049 0.32198 0.22505 0.12774 0.0212 0.2669 0.0507 0.30774 0.0564 0.038 4e-3 0.12562-0.0812 0.1875-0.20406zm0.55552-1.6838c0.16617-0.18882 0.16428-0.20333-0.0332-0.25629-0.16977-0.0423-0.2117-3e-3 -0.2117 0.1997 0 0.30808 0.0177 0.31279 0.24744 0.0531zm0.5824-1.8638c0-0.0169-0.0668-0.0683-0.15537-0.0985-0.0817-0.0291-0.1555-7e-3 -0.1555 0.0378 0 0.0529 0.0668 0.0993 0.1555 0.0993 0.0814 0 0.15537-9e-3 0.15537-0.0376zm-0.9749-2.2646c0.0344-0.20395 0.0212-0.65426-0.0302-1.002-0.12031-0.75892 0.0251-1.1006 0.41314-0.96601 0.23949 0.0811 5.2077 4e-3 11.892-0.1783 3.5365-0.0962 6.7577-0.15615 7.49-0.13202 0.25949 4e-3 0.28507 0.0414 0.28507 0.4157 0 0.22394-0.0696 0.62943-0.16409 0.90129l-0.16379 0.4944 0.34496 0.42693c0.39972 0.49355 0.45187 0.51113 0.61254 0.20415 0.1757-0.33669 0.22235-2.8514 0.0605-3.4096-0.10259-0.36521-0.10452-0.5354-1e-3 -0.83166 0.23258-0.67791 0.12667-1.0638-0.292-1.0638-0.25268 0-0.4609 0.78419-0.30323 1.1399 0.0832 0.19409 0.073 0.32421-0.0364 0.5535-0.18259 0.36319-0.55317 0.45844-1.1962 0.30792-0.74136-0.17413-1.6221-0.22022-1.8445-0.0947-0.17527 0.093-10.108 0.2761-15.334 0.27735-1.5918 3.9e-4 -1.6697-0.0483-1.4828-0.97317 0.17557-0.86635 0.15749-1.9272-0.0376-2.4012-0.0876-0.21725-0.16203-0.50464-0.15795-0.63833 0.0106-0.55527 0.0324-0.56131 1.7555-0.56664 0.88342-1e-3 2.8193-0.0344 4.3022-0.0786 2.3893-0.0616 11.893-0.23328 13.113-0.23163 0.83899 1e-3 0.866 0.0314 0.78259 1.0173-0.0603 0.73346-0.0439 0.88821 0.1098 1.0622 0.21597 0.24511 0.48919 0.26216 0.66746 0.038 0.0953-0.11475 0.11361-0.45409 0.0612-1.3035-0.0517-0.89756-0.0337-1.2036 0.0791-1.4337 0.13939-0.27046 0.13465-0.30114-0.0609-0.40988-0.27844-0.15403-7.9734-0.0259-8.7916 0.13934-0.65144 0.13721-1.0144 0.13217-1.1889-9e-3 -0.0646-0.0543-0.36681-0.15834-0.66664-0.22358-0.50494-0.10911-0.56323-0.0994-0.78723 0.11033-0.24035 0.2316-0.27723 0.23393-4.9857 0.28284-2.888 0.0255-4.8199 0.0876-4.9387 0.15704-0.17998 0.0955-0.19085 0.21546-0.14404 1.5098 0.0255 0.77145 0.0547 1.4985 0.0606 1.6153 0.0245 0.49655-0.11458 3.377-0.20854 4.2874-0.10877 1.0356-0.0544 1.3002 0.28815 1.4985 0.24463 0.14139 0.41893-0.0256 0.5023-0.48492zm6.6765-5.9328c0-0.0224-0.0438-0.0759-0.1011-0.11021-0.054-0.0319-0.10222-7e-3 -0.10222 0.044 0 0.0596 0.0433 0.10929 0.10222 0.10929 0.0547 0 0.1011-0.0142 0.1011-0.0423zm-7.9823-2.7188c0-0.0553-0.16326-0.10343-0.36263-0.10343-0.19972 0-0.36284 0.0448-0.36284 0.10343 0 0.0553 0.16322 0.10244 0.36284 0.10244 0.19942 0 0.36263-0.0456 0.36263-0.10244zm7.6712-2.1697c0-0.0178-0.0669-0.0668-0.15529-0.1014-0.0814-0.0289-0.15538-7e-3 -0.15538 0.0377 0 0.0545 0.067 0.0987 0.15538 0.0987 0.0815 0 0.15529-9e-3 0.15529-0.0388zm4.1666-1.7138c-3e-3 -0.17588-0.0442-0.82141-0.0876-1.4358l-0.0776-1.1173-0.0629 1.0638c-0.0334 0.58498-0.0376 1.4465-4e-3 1.9152l0.054 0.85093 0.0945-0.47885c0.0523-0.26322 0.0902-0.62249 0.0859-0.79802zm4.1262 1.1173c0-0.0554-0.0179-0.10416-0.0428-0.10416-0.0238 0-0.0724 0.0454-0.11063 0.10416-0.0329 0.0561-8e-3 0.104 0.0423 0.104 0.0577 0 0.10998-0.0464 0.10998-0.104zm-10.055-0.53176c0-0.0563-0.069-0.10333-0.16138-0.10333-0.0868 0-0.1335 0.0448-0.0936 0.10333 0.0333 0.0551 0.10857 0.10291 0.16159 0.10291 0.051 0 0.0924-0.0438 0.0924-0.10291zm3.6756 4e-3c0.0316-0.0516 6e-3 -0.12987-0.0429-0.16588-0.0552-0.0316-0.10575 4e-3 -0.10575 0.0962 0 0.18803 0.0597 0.21426 0.15077 0.0647zm8.0901-0.53944c0.0329-0.0543-0.0306-0.10316-0.14896-0.10316-0.11847 0-0.21351 0.0447-0.21351 0.10316 0 0.057 0.0651 0.10324 0.14878 0.10324 0.0787 0 0.17859-0.044 0.21357-0.10324zm-13.448-0.55264c-0.039-0.13235-0.60184-0.32995-0.68337-0.24619-0.0221 0.0196-0.0109 0.11404 0.0118 0.20895 0.0704 0.19807 0.72988 0.23429 0.66564 0.0335zm14.433 0.0143c0-0.0569-0.1198-0.10313-0.2652-0.10313-0.15039 0-0.23752 0.0414-0.20135 0.10313 0.0332 0.0557 0.15462 0.10485 0.26534 0.10485 0.11138 0 0.20121-0.044 0.20121-0.10485zm-9.5852-0.71577c-0.0595-0.25393-0.0763-0.26152-0.23572-0.0982-0.14707 0.15155-0.15024 0.20819-0.024 0.44609 0.12341 0.23415 0.15582 0.24871 0.23552 0.0983 0.0486-0.0912 0.0605-0.29485 0.0236-0.44623zm5.4386 0.11276c0-0.21003-0.17197-0.26412-0.30753-0.0933-0.0684 0.086-0.0902 0.25274-0.0482 0.39102 0.0673 0.22899 0.0753 0.2307 0.21609 0.0336 0.0741-0.108 0.14262-0.25968 0.14262-0.33269zm-11.143 0.0647c0.0344-0.0578-0.0501-0.10487-0.20727-0.10487-0.15449 0-0.24399 0.0432-0.20731 0.10487 0.0327 0.0564 0.12882 0.10231 0.20731 0.10231 0.0753 0 0.17185-0.0457 0.20727-0.10231zm16.197-0.0709c-0.0954-0.0229-0.26345-0.0229-0.36315 0-0.0954 0.0217-0.0132 0.0456 0.18147 0.0456 0.19954 0 0.28138-0.0156 0.18173-0.0456zm-11.102-1.1693c-0.0286-0.0269-0.10832-0.018-0.16962 9e-3 -0.0793 0.0502-0.0744 0.11513 0.0144 0.24007 0.12136 0.15085 0.13829 0.14895 0.16947-9e-3 0.014-0.0975 5e-3 -0.20933-0.0136-0.23991zm-7.9465-0.51927c0-0.0885-0.0445-0.13576-0.10274-0.0969-0.0548 0.0312-0.10173 0.11014-0.10173 0.16621 0 0.0522 0.0448 0.097 0.10173 0.097 0.054 0 0.10274-0.0718 0.10274-0.16612zm11.166-0.97786c-0.0204-0.16209-0.0401-0.0254-0.0401 0.2926 0 0.3218 0.0146 0.4537 0.0401 0.29245 0.0214-0.16219 0.0214-0.42401 0-0.58505zm-4.7814-1.1695c-0.11384-0.11306-0.19092 0.0674-0.11043 0.26051 0.0737 0.18286 0.0786 0.18286 0.12618-2e-3 0.0216-0.10345 0.0119-0.22277-0.011-0.25676zm-0.47568-0.55307c0-0.0527-0.0436-0.12913-0.1029-0.16558-0.0547-0.0331-0.1016 4e-3 -0.1016 0.0971 0 0.0886 0.0448 0.16571 0.1016 0.16571 0.055 0 0.1029-0.0405 0.1029-0.0964zm-1.1404-2.0805c0-0.084-0.042-0.16067-0.0952-0.16067-0.0528 0-0.0697 0.0711-0.038 0.16067 0.0309 0.0842 0.0739 0.16075 0.0953 0.16075 0.0193 0 0.0386-0.0693 0.0386-0.16075zm-0.51816-3.351c0-0.0563-0.0473-0.10326-0.11047-0.10326-0.0577 0-0.0765 0.0448-0.0431 0.10326 0.0328 0.0562 0.0804 0.10498 0.11165 0.10498 0.0222 0 0.0432-0.0452 0.0432-0.10498zm0.8293-0.54442c0-0.0494-0.118-0.0903-0.25916-0.0903-0.24389 0-0.33142 0.10002-0.2014 0.23654 0.0796 0.0822 0.46056-0.028 0.46056-0.1437zm6.2474-1.1213c-0.0669-0.027-0.21005-0.027-0.31086-2e-3 -0.0968 0.0222-0.041 0.048 0.12751 0.0499 0.17091 1e-3 0.25354-0.0143 0.18343-0.0461z" fill-opacity="0" stroke-width=".105"/>
<path d="m37.83 266.69 1.6471-85.12c-14.397-12.618-20.583-12.234-27.256-12.62h0.06734l-10.908 1.5451 0.27102 0.41485-0.28284 95.514z" fill="none" stroke="#000" stroke-width=".54027px"/>
<path d="m37.83 266.69c170.85 2.3306 170.85 2.3306 170.85 2.3306l0.10128-27.195-170.48-1.3215" fill="none" stroke="#000" stroke-width=".54027px"/>
<path d="m1.3809 170.5-0.06322-30.063v0.14683l48.606-3.3315v8.3066h6.4576l14.628 6.6512 0.08242-6.7263 137.32-22.544 0.37582 118.89" fill="none" stroke="#000" stroke-width=".54027px"/>
<path d="m1.3174 140.44 0.39015-39.428 57.018-5.7222v-0.10687l12.743 10.826v-0.091l2.0524-81.99v-0.10637l-72.253 0.46281 0.84666 76.45-0.19082-0.0996" fill="none" stroke="#000" stroke-width=".54027px"/>
<path d="m71.09 145.48 0.30984-10.321 136.57-23.668 0.43656 11.443" fill="none" stroke="#000" stroke-width=".54027px"/>
<path d="m73.521 23.814 7.541 0.10349 61.311 99.402-70.972 11.843" fill="none" stroke="#000" stroke-width=".54027px"/>
<path d="m81.062 23.918 6.5024 0.0627v-0.21343l54.808 99.553" fill="none" stroke="#000" stroke-width=".54027px"/>
<path d="m9.4303 100.33 1.4458-25.309h0.09521l32.643-3.4992-0.69855 25.2z" fill="none" stroke="#000" stroke-width=".54027px"/>
<path d="m64.843 99.947c-3.8893-3.3047-6.326-5.1771-6.6156-5.084-0.69491 0.22383-14.727 1.6595-14.863 1.5203-0.06478-0.0642 0.04202-5.6884 0.23848-12.494 0.19601-6.805 0.28489-12.446 0.19732-12.536-0.19169-0.19693-32.825 3.2242-33.096 3.4695-0.10409 0.09233-0.48664 5.6559-0.84998 12.359-0.40873 7.5414-0.78362 12.32-0.98338 12.535-0.17765 0.19115-1.6606 0.44173-3.2956 0.55679l-2.9728 0.20919-0.17266-4.9202c-0.22069-6.2876-0.86775-70.672-0.7119-70.832 0.06429-0.06622 16.186-0.21427 35.825-0.32939l35.708-0.20926-0.18865 5.3906c-0.10389 2.9649-0.57821 21.156-1.0542 40.424-0.476 19.268-0.89771 35.064-0.93712 35.103-0.03974 0.035-2.8424-2.2845-6.2289-5.1621z" fill="#784421" stroke-width=".29702"/>
<path d="m63.377 148.4-6.7436-3.1236-6.3038-6e-3v-8.4422l-1.8325 0.17292c-2.4436 0.22924-45.237 3.154-46.154 3.154h-0.71761l0.20258-19.334c0.11129-10.634 0.23044-19.369 0.26453-19.413 0.034152-0.0406 1.5006-0.2181 3.259-0.38825 1.7584-0.16972 14.466-1.453 28.24-2.8518 13.773-1.398 25.186-2.4302 25.362-2.2941 0.17555 0.13932 3.0718 2.5803 6.4361 5.43 3.3643 2.8494 6.1806 5.1148 6.2585 5.0346 0.12184-0.1253 2.1101-74.931 2.1306-80.156l0.0037-1.8807 7.1834 0.01 30.261 49.102c16.643 27.006 30.215 49.149 30.16 49.205-0.0802 0.0822-56.932 9.9744-67.052 11.664l-3.1129 0.5192-0.18352 1.9942c-0.10122 1.096-0.18571 4.1595-0.18806 6.8079-0.0024 4.8556-0.22358 7.9983-0.55347 7.9455-0.09877-8e-3 -3.2137-1.4355-6.9227-3.153z" fill="#784421" stroke-width=".29702"/>
<path d="m173.77 241.24c-13.304-0.11021-47.938-0.36669-76.965-0.56224-29.027-0.19582-54.001-0.43056-55.499-0.52256l-2.7227-0.1662 0.16483-4.5596c0.09017-2.5077 0.37139-15.664 0.62403-29.236l0.45929-24.674-1.1265-1.0196c-2.0361-1.8424-7.1041-5.6163-9.5374-7.1014-7.1233-4.3493-13.196-5.414-22.742-3.9889l-4.7645 0.71117v-29.233l21.624-1.4592c11.893-0.80268 22.646-1.531 23.896-1.6188l2.2723-0.16v8.2103h6.8118l7.2619 3.3098c3.9941 1.8204 7.4048 3.3105 7.5796 3.3105 0.20422 0 0.34728-1.2022 0.40056-3.3653l0.08309-3.3648 68.169-11.197c37.493-6.1587 68.196-11.172 68.229-11.143 0.0311 0.0263 0.15343 26.623 0.26778 59.097l0.20751 59.044-5.2517-0.0505c-2.8888-0.0236-16.137-0.14637-29.441-0.25945zm-41.883-32.789h13.149l-3e-3 -15.723c-3e-3 -17.559-0.0655-18.269-1.9347-22.163-1.2598-2.6277-4.4217-6.0674-6.7318-7.3249-4.1328-2.2486-9.0287-2.2486-13.56-1.5e-4 -2.3604 1.1721-5.8016 4.7608-7.1721 7.4798-1.876 3.7232-1.9268 4.2422-2.1536 22.06l-0.20427 16.069 2.7321-0.19927c1.5023-0.10624 8.6492-0.19957 15.881-0.19957zm66.775-5.7927c-8e-3 -3.1858-0.11464-11.006-0.21969-17.378l-0.19108-11.585-1.2721-2.6695c-1.7327-3.6384-4.2479-6.2321-7.788-8.0326-2.3055-1.1728-2.8132-1.3138-5.1347-1.4278-3.0732-0.15204-5.0176 0.23233-7.6209 1.5009-2.6822 1.3078-6.0098 4.7511-7.4345 7.694-1.8253 3.7715-1.9205 4.7742-2.0964 22.118l-0.15838 15.573h31.945z" fill="#784421" stroke-width=".29702"/>
<path d="m71.542 141.3c0.10507-2.0124 0.19169-4.1534 0.19169-4.7584v-1.1002l4.0315-0.6487c19.204-3.0894 66.747-11.201 66.89-11.413 0.0962-0.14764 14.561-2.7436 32.139-5.7703 17.578-3.0259 32.169-5.5606 32.426-5.6321 0.40883-0.11115 0.48961 0.52781 0.65433 5.1963 0.0996 2.9297 0.1451 5.3714 0.0874 5.4257-0.0506 0.0517-24.031 4.0267-53.284 8.8265-29.253 4.8007-59.757 9.8089-67.787 11.13-8.0296 1.3216-14.812 2.4023-15.072 2.4023-0.41876 0-0.45051-0.41385-0.28054-3.6583z" fill="#808080" stroke-width=".29702"/>
<path d="m107.63 66.356c-13.194-21.399-24.43-39.617-24.967-40.486l-0.97765-1.5798h5.8018l22.207 40.342c12.214 22.188 22.143 40.407 22.066 40.486-0.0742 0.079-10.935-17.364-24.13-38.762z" fill="#808080" stroke-width=".29702"/>
<path d="m147.38 267.88c-25.882-0.37009-60.582-0.8332-77.112-1.0295-16.529-0.1964-30.482-0.42239-31.006-0.50219l-0.95291-0.1455v-4.4511c0-2.4482 0.08743-8.1504 0.19475-12.672l0.19478-8.2195 28.759 0.20534c37.725 0.26894 93.86 0.72134 120.02 0.96797l20.89 0.1972v26.408l-6.963-0.0376c-3.83-0.0174-28.14-0.34532-54.023-0.71553z" fill="#808080" stroke-width=".29702"/>
<path d="m1.8416 218.61c0.1134-27.251 0.30981-47.696 0.45919-47.796 0.1437-0.0935 2.6261-0.49152 5.5168-0.87746 4.8031-0.64111 5.5407-0.67012 8.5642-0.33432 3.5285 0.39133 7.1719 1.4748 10.152 3.0191 2.2967 1.1896 7.23 4.6112 10.265 7.1191l2.4486 2.0234-0.17987 5.1452c-0.09918 2.8298-0.44384 20.176-0.76652 38.546-0.32275 18.371-0.66428 35.061-0.75904 37.088l-0.17226 3.6866h-35.726z" fill="#c8beb7" stroke-width=".29702"/>
<path d="m114.12 192.73c0.0817-8.3166 0.29051-15.934 0.45573-16.927 0.67369-4.0475 3.8508-8.9938 7.1501-11.132 3.0459-1.9749 6.8649-2.8189 10.235-2.2619 5.1644 0.85335 9.8717 5.4219 11.786 11.438 0.47427 1.49 0.53757 3.2658 0.6328 17.829l0.10808 16.174h-30.521z" fill="#c8beb7" stroke-width=".29702"/>
<path d="m167.68 191.82c0.0949-15.535 0.12294-16.083 0.74338-17.98 2.4507-7.4781 8.9392-12.245 15.857-11.65 2.4278 0.20867 4.0056 0.81886 6.5609 2.537 3.1296 2.1032 5.238 4.9974 6.3882 8.7688 0.55249 1.8098 0.5836 2.7823 0.5836 18.13v16.218h-30.236z" fill="#c8beb7" stroke-width=".29702"/>
<path d="m9.86 99.444c-0.021901-1.0566 1.2947-23.867 1.3847-23.981 0.11125-0.14258 31.845-3.596 31.981-3.4816 0.04332 0.03455-0.05419 4.183-0.2162 9.2138-0.16252 5.0301-0.29716 10.514-0.29918 12.187l-0.0019 3.0399-3.2985 0.34791c-13.645 1.4395-29.124 3.0505-29.313 3.0505-0.125 0-0.23099-0.16965-0.23539-0.37609z" fill="#c8beb7" stroke-width=".29702"/>
</svg>
